SplineFontDB: 3.0
FontName: gnomon-it-Foreground
FullName: Gnomon* Foreground
FamilyName: Gnomon* Foreground
Weight: Regular
Copyright: Copyright (c) 2017, Owen Earl,,,
UComments: "2017-8-31: Created with FontForge (http://fontforge.org)"
Version: 0
ItalicAngle: 0
UnderlinePosition: -100
UnderlineWidth: 50
Ascent: 750
Descent: 250
InvalidEm: 0
LayerCount: 2
Layer: 0 0 "Back" 1
Layer: 1 0 "Fore" 0
PreferredKerning: 4
XUID: [1021 31 -699969567 1224121]
FSType: 0
OS2Version: 0
OS2_WeightWidthSlopeOnly: 0
OS2_UseTypoMetrics: 0
CreationTime: 1504240408
ModificationTime: 1518290771
PfmFamily: 17
TTFWeight: 400
TTFWidth: 5
LineGap: 0
VLineGap: 0
OS2TypoAscent: 750
OS2TypoAOffset: 0
OS2TypoDescent: -250
OS2TypoDOffset: 0
OS2TypoLinegap: 0
OS2WinAscent: 882
OS2WinAOffset: 0
OS2WinDescent: -1
OS2WinDOffset: 0
HheadAscent: 882
HheadAOffset: 0
HheadDescent: 1
HheadDOffset: 0
OS2CapHeight: 750
OS2XHeight: 500
OS2Vendor: 'inde'
MarkAttachClasses: 1
DEI: 91125
LangName: 1033 "" "" "Foreground" "" "" "" "" "" "" "" "" "" "" "" "" "" "Gnomon*"
Encoding: AdobeStandard
UnicodeInterp: none
NameList: AGL with PUA
DisplaySize: -48
AntiAlias: 1
FitToEm: 0
WinInfo: 48 16 4
BeginPrivate: 0
EndPrivate
Grid
-1000 634 m 0
 2000 634 l 1024
  Named: "Lowercase"
-1000 749 m 0
 2000 749 l 1024
  Named: "top"
-1000 249 m 0
 2000 249 l 1024
  Named: "bottom"
EndSplineSet
TeXData: 2 0 0 314572 157286 104857 664797 1048576 104857 783286 444596 497025 792723 393216 433062 380633 303038 157286 324010 404750 52429 2506097 1059062 262144
BeginChars: 256 87

StartChar: A
Encoding: 65 65 0
GlifName: A_
Width: 580
VWidth: 0
Flags: HMW
LayerCount: 2
Fore
SplineSet
10 249 m 1
 210 749 l 1
 370 749 l 1
 570 249 l 1
 420 249 l 1
 389 334 l 1
 191 334 l 1
 160 249 l 1
 10 249 l 1
290 610 m 1
 232 449 l 1
 348 449 l 1
 290 610 l 1
EndSplineSet
Validated: 1
EndChar

StartChar: I
Encoding: 73 73 1
GlifName: I_
Width: 230
VWidth: 0
Flags: HMW
LayerCount: 2
Fore
SplineSet
45 249 m 1
 45 749 l 1
 185 749 l 1
 185 249 l 1
 45 249 l 1
EndSplineSet
Validated: 1
EndChar

StartChar: H
Encoding: 72 72 2
GlifName: H_
Width: 560
VWidth: 0
Flags: HMW
LayerCount: 2
Fore
SplineSet
45 249 m 1
 45 749 l 1
 185 749 l 1
 185 559 l 1
 375 559 l 1
 375 749 l 1
 515 749 l 1
 515 249 l 1
 375 249 l 1
 375 439 l 1
 185 439 l 1
 185 249 l 1
 45 249 l 1
EndSplineSet
Validated: 1
EndChar

StartChar: E
Encoding: 69 69 3
GlifName: E_
Width: 455
VWidth: 0
Flags: HMW
LayerCount: 2
Fore
SplineSet
45 249 m 5
 45 749 l 5
 172 749 298 749 425 749 c 5
 425 634 l 5
 185 634 l 5
 185 559 l 5
 395 559 l 5
 395 444 l 5
 185 444 l 5
 185 369 l 5
 425 369 l 5
 425 249 l 5
 298 249 172 249 45 249 c 5
EndSplineSet
Validated: 1
EndChar

StartChar: F
Encoding: 70 70 4
GlifName: F_
Width: 450
VWidth: 0
Flags: HMW
LayerCount: 2
Fore
SplineSet
45 249 m 1
 45 749 l 1
 172 749 298 749 425 749 c 1
 425 629 l 1
 185 629 l 1
 185 539 l 1
 395 539 l 1
 395 414 l 1
 185 414 l 1
 185 249 l 1
 45 249 l 1
EndSplineSet
Validated: 1
EndChar

StartChar: N
Encoding: 78 78 5
GlifName: N_
Width: 590
VWidth: 0
Flags: HMW
LayerCount: 2
Fore
SplineSet
45 249 m 1
 45 749 l 1
 215 749 l 1
 405 432 l 1
 405 749 l 1
 545 749 l 1
 545 249 l 1
 375 249 l 1
 185 566 l 1
 185 249 l 1
 45 249 l 1
EndSplineSet
Validated: 1
EndChar

StartChar: O
Encoding: 79 79 6
GlifName: O_
Width: 610
VWidth: 0
Flags: HMW
LayerCount: 2
Fore
SplineSet
30 499 m 0
 30 648 130 769 305 769 c 0
 480 769 580 648 580 499 c 0
 580 350 480 229 305 229 c 0
 130 229 30 350 30 499 c 0
175 499 m 0
 175 406 243 354 305 354 c 0
 367 354 435 406 435 499 c 0
 435 592 367 644 305 644 c 0
 243 644 175 592 175 499 c 0
EndSplineSet
Validated: 1
EndChar

StartChar: T
Encoding: 84 84 7
GlifName: T_
Width: 480
VWidth: 0
Flags: HMW
LayerCount: 2
Fore
SplineSet
20 629 m 1
 20 749 l 1
 460 749 l 1
 460 629 l 1
 310 629 l 1
 310 249 l 1
 170 249 l 1
 170 629 l 1
 20 629 l 1
EndSplineSet
Validated: 1
EndChar

StartChar: L
Encoding: 76 76 8
GlifName: L_
Width: 445
VWidth: 0
Flags: HMW
LayerCount: 2
Fore
SplineSet
45 249 m 1
 45 749 l 1
 185 749 l 1
 185 369 l 1
 425 369 l 1
 425 249 l 1
 298 249 172 249 45 249 c 1
EndSplineSet
Validated: 1
EndChar

StartChar: C
Encoding: 67 67 9
GlifName: C_
Width: 515
VWidth: 0
Flags: HMW
LayerCount: 2
Fore
SplineSet
175 499 m 0
 175 406 248 354 305 354 c 0
 366 354 410 377 435 410 c 1
 475 283 l 1
 443 251 396 229 315 229 c 0
 140 229 30 350 30 499 c 0
 30 648 140 769 315 769 c 0
 396 769 443 747 475 715 c 1
 435 588 l 1
 410 621 366 644 305 644 c 0
 248 644 175 592 175 499 c 0
EndSplineSet
Validated: 1
EndChar

StartChar: G
Encoding: 71 71 10
GlifName: G_
Width: 555
VWidth: 0
Flags: HMW
LayerCount: 2
Fore
SplineSet
175 499 m 0
 175 406 248 354 305 354 c 0
 339 354 367 361 390 373 c 1
 390 444 l 1
 280 444 l 1
 280 539 l 1
 520 539 l 1
 520 323 l 1
 468 271 386 229 305 229 c 0
 150 229 30 350 30 499 c 0
 30 648 140 769 315 769 c 0
 396 769 443 747 475 715 c 1
 435 588 l 1
 410 621 366 644 305 644 c 0
 248 644 175 592 175 499 c 0
EndSplineSet
Validated: 1
EndChar

StartChar: D
Encoding: 68 68 11
GlifName: D_
Width: 555
VWidth: 0
Flags: HMW
LayerCount: 2
Fore
SplineSet
45 249 m 1
 45 749 l 1
 118 749 192 749 265 749 c 0
 440 749 525 648 525 499 c 0
 525 350 440 249 265 249 c 0
 192 249 118 249 45 249 c 1
265 369 m 2
 327 369 380 406 380 499 c 0
 380 592 327 629 265 629 c 2
 185 629 l 1
 185 369 l 1
 265 369 l 2
EndSplineSet
Validated: 1
EndChar

StartChar: M
Encoding: 77 77 12
GlifName: M_
Width: 690
VWidth: 0
Flags: HMW
LayerCount: 2
Fore
SplineSet
45 249 m 1
 45 749 l 1
 185 749 l 1
 345 479 l 1
 505 749 l 1
 645 749 l 1
 645 249 l 1
 505 249 l 1
 505 509 l 1
 345 239 l 1
 185 509 l 1
 185 249 l 1
 45 249 l 1
EndSplineSet
Validated: 1
EndChar

StartChar: K
Encoding: 75 75 14
GlifName: K_
Width: 525
VWidth: 0
Flags: HMW
LayerCount: 2
Fore
SplineSet
45 249 m 1
 45 749 l 1
 185 749 l 1
 185 542 l 1
 345 749 l 1
 515 749 l 1
 335 529 l 1
 525 249 l 1
 345 249 l 1
 185 485 l 1
 185 249 l 1
 45 249 l 1
EndSplineSet
Validated: 1
EndChar

StartChar: o
Encoding: 111 111 15
GlifName: o
Width: 474
VWidth: 0
Flags: HMW
LayerCount: 2
Fore
SplineSet
165 441 m 0
 165 393 189 354 237 354 c 0
 285 354 309 393 309 441 c 0
 309 489 285 529 237 529 c 0
 189 529 165 489 165 441 c 0
35 441 m 0
 35 568 120 644 237 644 c 0
 354 644 439 568 439 441 c 0
 439 314 354 239 237 239 c 0
 120 239 35 324 35 441 c 0
EndSplineSet
Validated: 1
EndChar

StartChar: B
Encoding: 66 66 16
GlifName: B_
Width: 502
VWidth: 0
Flags: HMW
LayerCount: 2
Fore
SplineSet
45 249 m 1
 45 749 l 1
 118 749 192 749 265 749 c 0
 382 749 457 694 457 607 c 0
 457 553 434 523 394 507 c 1
 447 486 477 448 477 392 c 0
 477 295 402 249 285 249 c 0
 205 249 125 249 45 249 c 1
265 644 m 2
 185 644 l 1
 185 554 l 1
 265 554 l 2
 293 554 312 569 312 597 c 0
 312 625 293 644 265 644 c 2
185 459 m 1
 185 359 l 1
 275 359 l 2
 313 359 332 382 332 410 c 0
 332 438 313 459 275 459 c 2
 185 459 l 1
EndSplineSet
Validated: 1
EndChar

StartChar: b
Encoding: 98 98 17
GlifName: b
Width: 499
VWidth: 0
Flags: HMW
LayerCount: 2
Fore
SplineSet
40 249 m 1
 40 779 l 1
 175 779 l 1
 175 595 l 1
 206 626 247 644 292 644 c 0
 399 644 464 558 464 441 c 0
 464 324 399 239 292 239 c 0
 247 239 206 259 175 291 c 1
 175 249 l 1
 40 249 l 1
175 382 m 1
 194 358 223 344 252 344 c 0
 300 344 329 383 329 441 c 0
 329 499 300 539 252 539 c 0
 223 539 194 524 175 500 c 1
 175 382 l 1
EndSplineSet
Validated: 1
EndChar

StartChar: l
Encoding: 108 108 18
GlifName: l
Width: 215
VWidth: 0
Flags: HMW
LayerCount: 2
Fore
SplineSet
40 249 m 1
 40 779 l 1
 175 779 l 1
 175 249 l 1
 40 249 l 1
EndSplineSet
Validated: 1
EndChar

StartChar: d
Encoding: 100 100 19
GlifName: d
Width: 499
VWidth: 0
Flags: HMW
LayerCount: 2
Fore
SplineSet
459 249 m 1
 324 249 l 1
 324 291 l 1
 293 259 252 239 207 239 c 0
 100 239 35 324 35 441 c 0
 35 558 100 644 207 644 c 0
 252 644 293 626 324 595 c 1
 324 779 l 1
 459 779 l 1
 459 249 l 1
324 500 m 1
 305 524 276 539 247 539 c 0
 199 539 170 499 170 441 c 0
 170 383 199 344 247 344 c 0
 276 344 305 358 324 382 c 1
 324 500 l 1
EndSplineSet
Validated: 1
EndChar

StartChar: c
Encoding: 99 99 20
GlifName: c
Width: 404
VWidth: 0
Flags: HMW
LayerCount: 2
Fore
SplineSet
35 441 m 0
 35 568 130 644 247 644 c 0
 285 644 333 633 359 609 c 1
 319 506 l 1
 307 521 280 534 257 534 c 0
 199 534 170 489 170 441 c 0
 170 393 199 349 257 349 c 0
 280 349 307 363 319 377 c 1
 359 274 l 1
 333 250 285 239 247 239 c 0
 130 239 35 324 35 441 c 0
EndSplineSet
Validated: 1
EndChar

StartChar: e
Encoding: 101 101 21
GlifName: e
Width: 469
VWidth: 0
Flags: HMW
LayerCount: 2
Fore
SplineSet
40 441 m 0
 40 568 125 644 242 644 c 0
 359 644 434 568 434 461 c 1
 192 372 l 1
 208 352 231 339 262 339 c 0
 305 339 332 363 354 397 c 1
 414 304 l 1
 378 260 320 239 252 239 c 0
 135 239 40 314 40 441 c 0
318 515 m 1
 303 535 279 548 245 548 c 0
 190 548 168 502 165 457 c 1
 318 515 l 1
EndSplineSet
Validated: 1
EndChar

StartChar: h
Encoding: 104 104 22
GlifName: h
Width: 474
VWidth: 0
Flags: HMW
LayerCount: 2
Fore
SplineSet
40 249 m 1
 40 779 l 1
 175 779 l 1
 175 562 l 1
 208 612 257 644 302 644 c 0
 389 644 434 588 434 491 c 2
 434 249 l 1
 299 249 l 1
 299 461 l 2
 299 519 280 539 252 539 c 0
 223 539 194 517 175 489 c 1
 175 249 l 1
 40 249 l 1
EndSplineSet
Validated: 1
EndChar

StartChar: n
Encoding: 110 110 23
GlifName: n
Width: 474
VWidth: 0
Flags: HMW
LayerCount: 2
Fore
SplineSet
40 249 m 1
 40 634 l 1
 175 634 l 1
 175 562 l 1
 208 612 257 644 302 644 c 0
 389 644 434 588 434 491 c 2
 434 249 l 1
 299 249 l 1
 299 461 l 2
 299 519 280 539 252 539 c 0
 223 539 194 517 175 489 c 1
 175 249 l 1
 40 249 l 1
EndSplineSet
Validated: 1
EndChar

StartChar: m
Encoding: 109 109 24
GlifName: m
Width: 693
VWidth: 0
Flags: HMW
LayerCount: 2
Fore
SplineSet
40 249 m 1
 40 634 l 1
 175 634 l 1
 175 568 l 1
 205 615 249 644 292 644 c 0
 352 644 387 617 403 569 c 1
 439 615 489 644 531 644 c 0
 618 644 653 588 653 491 c 2
 653 249 l 1
 518 249 l 1
 518 461 l 2
 518 519 509 539 481 539 c 0
 454 539 430 520 414 495 c 1
 414 413 414 331 414 249 c 1
 279 249 l 1
 279 461 l 2
 279 519 270 539 242 539 c 0
 215 539 191 520 175 495 c 1
 175 249 l 1
 40 249 l 1
EndSplineSet
Validated: 1
EndChar

StartChar: y
Encoding: 121 121 25
GlifName: y
Width: 470
VWidth: 0
Flags: HMW
LayerCount: 2
Fore
SplineSet
180 280 m 1
 10 634 l 1
 165 634 l 1
 239 431 l 1
 320 634 l 1
 460 634 l 1
 240 104 l 1
 110 104 l 1
 180 280 l 1
EndSplineSet
Validated: 1
EndChar

StartChar: a
Encoding: 97 97 26
GlifName: a
Width: 434
VWidth: 0
Flags: HMW
LayerCount: 2
Fore
SplineSet
259 447 m 1
 259 461 l 2
 259 519 250 539 202 539 c 0
 184 539 135 529 95 501 c 1
 45 571 l 1
 105 608 175 644 252 644 c 0
 339 644 394 588 394 491 c 2
 394 249 l 1
 259 249 l 1
 259 289 l 1
 233 261 194 239 142 239 c 0
 85 239 20 264 20 361 c 0
 20 438 80 474 157 474 c 0
 199 474 233 462 259 447 c 1
259 382 m 1
 249 390 236 400 207 400 c 0
 179 400 165 378 165 360 c 0
 165 342 174 315 202 315 c 0
 226 315 246 327 259 342 c 1
 259 382 l 1
EndSplineSet
Validated: 1
EndChar

StartChar: u
Encoding: 117 117 27
GlifName: u
Width: 474
VWidth: 0
Flags: HMW
LayerCount: 2
Fore
SplineSet
434 634 m 1
 434 249 l 1
 299 249 l 1
 299 321 l 1
 266 271 217 239 172 239 c 0
 85 239 40 295 40 392 c 2
 40 634 l 1
 175 634 l 1
 175 422 l 2
 175 364 194 344 222 344 c 0
 251 344 280 366 299 394 c 1
 299 634 l 1
 434 634 l 1
EndSplineSet
Validated: 1
EndChar

StartChar: k
Encoding: 107 107 28
GlifName: k
Width: 485
VWidth: 0
Flags: HMW
LayerCount: 2
Fore
SplineSet
40 249 m 1
 40 779 l 1
 175 779 l 1
 175 499 l 1
 310 634 l 1
 475 634 l 1
 315 474 l 1
 485 249 l 1
 320 249 l 1
 175 441 l 1
 175 249 l 1
 40 249 l 1
EndSplineSet
Validated: 1
EndChar

StartChar: i
Encoding: 105 105 29
GlifName: i
Width: 271
VWidth: 0
Flags: HMW
LayerCount: 2
Fore
SplineSet
68 249 m 1
 68 634 l 1
 203 634 l 1
 203 249 l 1
 68 249 l 1
135 691 m 1
 40 786 l 1
 135 882 l 1
 231 786 l 1
 135 691 l 1
EndSplineSet
Validated: 1
EndChar

StartChar: q
Encoding: 113 113 30
GlifName: q
Width: 499
VWidth: 0
Flags: HMW
LayerCount: 2
Fore
SplineSet
464 634 m 1
 464 104 l 1
 329 104 l 1
 329 288 l 1
 298 257 257 239 212 239 c 0
 105 239 40 325 40 442 c 0
 40 559 105 644 212 644 c 0
 257 644 298 624 329 592 c 1
 329 634 l 1
 464 634 l 1
329 501 m 1
 310 525 281 539 252 539 c 0
 204 539 175 500 175 442 c 0
 175 384 204 344 252 344 c 0
 281 344 310 359 329 383 c 1
 329 501 l 1
EndSplineSet
Validated: 1
EndChar

StartChar: p
Encoding: 112 112 31
GlifName: p
Width: 499
VWidth: 0
Flags: HMW
LayerCount: 2
Fore
SplineSet
40 634 m 1
 175 634 l 1
 175 592 l 1
 206 624 247 644 292 644 c 0
 399 644 464 559 464 442 c 0
 464 325 399 239 292 239 c 0
 247 239 206 257 175 288 c 1
 175 104 l 1
 40 104 l 1
 40 634 l 1
175 383 m 1
 194 359 223 344 252 344 c 0
 300 344 329 384 329 442 c 0
 329 500 300 539 252 539 c 0
 223 539 194 525 175 501 c 1
 175 383 l 1
EndSplineSet
Validated: 1
EndChar

StartChar: t
Encoding: 116 116 32
GlifName: t
Width: 325
VWidth: 0
Flags: HMW
LayerCount: 2
Fore
SplineSet
20 534 m 1
 20 634 l 1
 90 634 l 1
 90 699 l 1
 225 759 l 1
 225 634 l 1
 305 634 l 1
 305 534 l 1
 225 534 l 1
 225 249 l 1
 90 249 l 1
 90 534 l 1
 20 534 l 1
EndSplineSet
Validated: 1
EndChar

StartChar: s
Encoding: 115 115 33
GlifName: s
Width: 374
VWidth: 0
Flags: HMW
LayerCount: 2
Fore
SplineSet
214 361 m 0
 214 411 46 407 46 527 c 0
 46 624 121 649 198 649 c 0
 235 649 285 634 335 587 c 1
 295 497 l 1
 255 535 227 549 209 549 c 0
 191 549 181 540 181 527 c 0
 181 477 349 475 349 371 c 0
 349 274 264 234 187 234 c 0
 120 234 70 249 20 296 c 1
 60 386 l 1
 100 348 149 334 167 334 c 0
 195 334 214 340 214 361 c 0
EndSplineSet
Validated: 1
EndChar

StartChar: r
Encoding: 114 114 34
GlifName: r
Width: 374
VWidth: 0
Flags: HMW
LayerCount: 2
Fore
SplineSet
374 571 m 1
 299 471 l 1
 279 499 270 519 232 519 c 0
 213 519 192 507 175 489 c 1
 175 249 l 1
 40 249 l 1
 40 634 l 1
 155 634 l 1
 164 559 l 1
 193 607 235 639 272 639 c 0
 329 639 354 598 374 571 c 1
EndSplineSet
Validated: 1
EndChar

StartChar: g
Encoding: 103 103 35
GlifName: g
Width: 489
VWidth: 0
Flags: HMW
LayerCount: 2
Fore
SplineSet
314 307 m 1
 283 277 242 259 197 259 c 0
 90 259 35 344 35 451 c 0
 35 558 90 644 197 644 c 0
 242 644 283 628 314 599 c 1
 314 634 l 1
 449 634 l 1
 449 209 l 2
 449 112 354 57 267 57 c 0
 190 57 120 82 60 119 c 1
 100 219 l 1
 150 181 209 167 247 167 c 0
 295 167 314 181 314 239 c 2
 314 307 l 1
314 507 m 1
 295 528 266 539 237 539 c 0
 189 539 170 499 170 451 c 0
 170 403 189 364 237 364 c 0
 266 364 295 375 314 396 c 1
 314 507 l 1
EndSplineSet
Validated: 1
EndChar

StartChar: f
Encoding: 102 102 36
GlifName: f
Width: 333
VWidth: 0
Flags: HMW
LayerCount: 2
Fore
SplineSet
199 249 m 1
 64 249 l 1
 64 534 l 1
 20 534 l 1
 20 634 l 1
 64 634 l 1
 64 637 l 2
 64 734 149 789 226 789 c 0
 293 789 323 774 373 727 c 1
 333 627 l 1
 293 665 264 679 246 679 c 0
 223 679 206 670 201 634 c 1
 285 634 l 1
 285 534 l 1
 199 534 l 1
 199 249 l 1
EndSplineSet
Validated: 1
EndChar

StartChar: j
Encoding: 106 106 37
GlifName: j
Width: 277
VWidth: 0
Flags: HMW
LayerCount: 2
Fore
SplineSet
74 634 m 1
 209 634 l 1
 209 153 l 2
 209 56 124 1 47 1 c 0
 -20 1 -50 16 -100 63 c 1
 -60 163 l 1
 -20 125 9 111 27 111 c 0
 55 111 74 125 74 183 c 2
 74 634 l 1
141 691 m 1
 46 786 l 1
 141 882 l 1
 237 786 l 1
 141 691 l 1
EndSplineSet
Validated: 1
EndChar

StartChar: v
Encoding: 118 118 38
GlifName: v
Width: 465
VWidth: 0
Flags: HMW
LayerCount: 2
Fore
SplineSet
160 249 m 1
 10 634 l 1
 155 634 l 1
 236 350 l 1
 310 634 l 1
 455 634 l 1
 315 249 l 1
 160 249 l 1
EndSplineSet
Validated: 1
EndChar

StartChar: w
Encoding: 119 119 39
GlifName: w
Width: 695
VWidth: 0
Flags: HMW
LayerCount: 2
Fore
SplineSet
135 249 m 1
 15 634 l 1
 160 634 l 1
 213 377 l 1
 290 634 l 1
 405 634 l 1
 488 377 l 1
 535 634 l 1
 680 634 l 1
 570 249 l 1
 425 249 l 1
 349 456 l 1
 280 249 l 1
 135 249 l 1
EndSplineSet
Validated: 1
EndChar

StartChar: x
Encoding: 120 120 40
GlifName: x
Width: 465
VWidth: 0
Flags: HMW
LayerCount: 2
Fore
SplineSet
232 547 m 1
 300 634 l 1
 455 634 l 1
 310 448 l 1
 465 249 l 1
 310 249 l 1
 232 348 l 1
 155 249 l 1
 0 249 l 1
 155 448 l 1
 10 634 l 1
 165 634 l 1
 232 547 l 1
EndSplineSet
Validated: 1
EndChar

StartChar: z
Encoding: 122 122 41
GlifName: z
Width: 425
VWidth: 0
Flags: HMW
LayerCount: 2
Fore
SplineSet
55 504 m 1
 55 634 l 1
 175 634 295 634 415 634 c 1
 236 379 l 1
 390 379 l 1
 390 249 l 1
 263 249 137 249 10 249 c 1
 189 504 l 1
 55 504 l 1
EndSplineSet
Validated: 1
EndChar

StartChar: U
Encoding: 85 85 42
GlifName: U_
Width: 554
VWidth: 0
Flags: HMW
LayerCount: 2
Fore
SplineSet
185 471 m 2
 185 403 219 364 277 364 c 0
 335 364 369 403 369 471 c 2
 369 749 l 1
 509 749 l 1
 509 471 l 2
 509 324 434 239 277 239 c 0
 120 239 45 334 45 471 c 2
 45 749 l 1
 185 749 l 1
 185 471 l 2
EndSplineSet
Validated: 1
EndChar

StartChar: P
Encoding: 80 80 43
GlifName: P_
Width: 487
VWidth: 0
Flags: HMW
LayerCount: 2
Fore
SplineSet
45 249 m 1
 45 749 l 1
 118 749 192 749 265 749 c 0
 382 749 467 674 467 567 c 0
 467 450 382 384 265 384 c 2
 185 384 l 1
 185 249 l 1
 45 249 l 1
255 634 m 2
 185 634 l 1
 185 499 l 1
 255 499 l 2
 293 499 322 519 322 567 c 0
 322 615 293 634 255 634 c 2
EndSplineSet
Validated: 1
EndChar

StartChar: R
Encoding: 82 82 44
GlifName: R_
Width: 515
VWidth: 0
Flags: HMW
LayerCount: 2
Fore
SplineSet
45 249 m 1
 45 749 l 1
 118 749 192 749 265 749 c 0
 382 749 467 704 467 577 c 0
 467 498 420 457 348 442 c 1
 495 249 l 1
 335 249 l 1
 185 439 l 1
 185 249 l 1
 45 249 l 1
252 634 m 2
 185 634 l 1
 185 519 l 1
 252 519 l 2
 290 519 322 529 322 577 c 0
 322 625 290 634 252 634 c 2
EndSplineSet
Validated: 1
EndChar

StartChar: Q
Encoding: 81 81 45
GlifName: Q_
Width: 610
VWidth: 0
Flags: HMW
LayerCount: 2
Fore
SplineSet
30 499 m 0
 30 648 130 769 305 769 c 0
 480 769 580 648 580 499 c 0
 580 383 520 284 411 246 c 1
 565 99 l 1
 365 99 l 1
 251 233 l 1
 110 255 30 366 30 499 c 0
175 499 m 0
 175 406 243 354 305 354 c 0
 367 354 435 406 435 499 c 0
 435 592 367 644 305 644 c 0
 243 644 175 592 175 499 c 0
EndSplineSet
Validated: 1
EndChar

StartChar: Y
Encoding: 89 89 46
GlifName: Y_
Width: 540
VWidth: 0
Flags: HMW
LayerCount: 2
Fore
SplineSet
340 429 m 1
 340 249 l 1
 200 249 l 1
 200 429 l 1
 10 749 l 1
 170 749 l 1
 270 549 l 1
 370 749 l 1
 530 749 l 1
 340 429 l 1
EndSplineSet
Validated: 1
EndChar

StartChar: J
Encoding: 74 74 47
GlifName: J_
Width: 319
VWidth: 0
Flags: HMW
LayerCount: 2
Fore
SplineSet
134 259 m 2
 134 749 l 1
 274 749 l 1
 274 219 l 2
 274 122 184 67 107 67 c 0
 40 67 0 87 -50 134 c 1
 0 239 l 1
 40 201 69 187 87 187 c 0
 115 187 134 201 134 259 c 2
EndSplineSet
Validated: 1
EndChar

StartChar: S
Encoding: 83 83 48
GlifName: S_
Width: 449
VWidth: 0
Flags: HMW
LayerCount: 2
Fore
SplineSet
279 399 m 0
 279 459 46 462 46 612 c 0
 46 709 131 764 238 764 c 0
 305 764 365 734 415 677 c 1
 375 567 l 1
 335 605 287 644 239 644 c 0
 211 644 201 630 201 612 c 0
 201 552 424 545 424 401 c 0
 424 274 329 234 222 234 c 0
 125 234 55 269 15 316 c 1
 55 431 l 1
 95 393 164 359 212 359 c 0
 250 359 279 368 279 399 c 0
EndSplineSet
Validated: 1
EndChar

StartChar: V
Encoding: 86 86 49
GlifName: V_
Width: 580
VWidth: 0
Flags: HMW
LayerCount: 2
Fore
SplineSet
570 749 m 1
 370 249 l 1
 210 249 l 1
 10 749 l 1
 160 749 l 1
 290 388 l 1
 420 749 l 1
 570 749 l 1
EndSplineSet
Validated: 1
EndChar

StartChar: W
Encoding: 87 87 50
GlifName: W_
Width: 880
VWidth: 0
Flags: HMW
LayerCount: 2
Fore
SplineSet
860 749 m 1
 670 249 l 1
 510 249 l 1
 442 444 l 1
 370 249 l 1
 210 249 l 1
 20 749 l 1
 170 749 l 1
 294 384 l 1
 381 602 l 1
 320 749 l 5
 480 749 l 5
 592 401 l 1
 710 749 l 1
 860 749 l 1
EndSplineSet
Validated: 1
EndChar

StartChar: X
Encoding: 88 88 51
GlifName: X_
Width: 620
VWidth: 0
Flags: HMW
LayerCount: 2
Fore
SplineSet
600 249 m 1
 430 249 l 1
 310 403 l 1
 190 249 l 1
 20 249 l 1
 225 512 l 1
 40 749 l 1
 210 749 l 1
 310 621 l 1
 410 749 l 1
 580 749 l 1
 395 512 l 1
 600 249 l 1
EndSplineSet
Validated: 1
EndChar

StartChar: Z
Encoding: 90 90 52
GlifName: Z_
Width: 580
VWidth: 0
Flags: HMW
LayerCount: 2
Fore
SplineSet
80 634 m 1
 80 749 l 1
 570 749 l 1
 274 369 l 1
 530 369 l 1
 530 249 l 1
 20 249 l 1
 320 634 l 1
 80 634 l 1
EndSplineSet
Validated: 1
EndChar

StartChar: one
Encoding: 49 49 53
GlifName: one
Width: 230
VWidth: 0
Flags: HMW
LayerCount: 2
Fore
SplineSet
45 249 m 1
 45 699 l 1
 185 779 l 1
 185 249 l 1
 45 249 l 1
EndSplineSet
Validated: 1
EndChar

StartChar: zero
Encoding: 48 48 54
GlifName: zero
Width: 510
VWidth: 0
Flags: HMW
LayerCount: 2
Fore
SplineSet
30 499 m 0
 30 648 100 769 255 769 c 0
 410 769 480 648 480 499 c 0
 480 350 410 229 255 229 c 0
 100 229 30 350 30 499 c 0
175 499 m 0
 175 406 203 354 255 354 c 0
 307 354 335 406 335 499 c 0
 335 592 307 644 255 644 c 0
 203 644 175 592 175 499 c 0
EndSplineSet
Validated: 1
EndChar

StartChar: two
Encoding: 50 50 55
GlifName: two
Width: 458
VWidth: 0
Flags: HMW
LayerCount: 2
Fore
SplineSet
423 592 m 0
 423 496 310 433 226 371 c 1
 420 371 l 1
 420 251 l 1
 30 251 l 1
 30 401 278 524 278 594 c 0
 278 615 259 639 211 639 c 0
 163 639 114 600 74 562 c 1
 34 677 l 1
 74 724 134 759 231 759 c 0
 308 759 423 719 423 592 c 0
EndSplineSet
Validated: 1
EndChar

StartChar: period
Encoding: 46 46 56
GlifName: period
Width: 291
VWidth: 0
Flags: HMW
LayerCount: 2
Fore
SplineSet
145 221 m 1
 40 326 l 1
 145 432 l 1
 251 326 l 1
 145 221 l 1
EndSplineSet
Validated: 1
EndChar

StartChar: three
Encoding: 51 51 57
GlifName: three
Width: 464
VWidth: 0
Flags: HMW
LayerCount: 2
Fore
SplineSet
157 458 m 1
 157 553 l 1
 207 553 l 2
 255 553 264 578 264 606 c 0
 264 629 250 644 222 644 c 0
 174 644 126 605 86 567 c 1
 46 677 l 1
 96 734 156 764 223 764 c 0
 330 764 415 719 415 622 c 0
 415 567 389 534 344 516 c 1
 398 496 429 457 429 401 c 0
 429 274 304 234 227 234 c 0
 130 234 60 269 20 316 c 1
 60 431 l 1
 100 393 159 359 207 359 c 0
 255 359 284 368 284 409 c 0
 284 447 255 458 207 458 c 2
 157 458 l 1
EndSplineSet
Validated: 1
EndChar

StartChar: four
Encoding: 52 52 58
GlifName: four
Width: 490
VWidth: 0
Flags: HMW
LayerCount: 2
Fore
SplineSet
255 344 m 1
 178 344 102 344 25 344 c 1
 5 414 l 1
 295 749 l 1
 395 749 l 1
 395 649 395 549 395 449 c 1
 465 449 l 1
 465 344 l 1
 395 344 l 1
 395 249 l 1
 255 249 l 1
 255 344 l 1
266 449 m 1
 266 581 l 1
 152 449 l 1
 266 449 l 1
EndSplineSet
Validated: 1
EndChar

StartChar: seven
Encoding: 55 55 59
GlifName: seven
Width: 455
VWidth: 0
Flags: HMW
LayerCount: 2
Fore
SplineSet
435 749 m 1
 434 609 257 556 257 246 c 1
 122 248 l 1
 122 467 209 547 268 629 c 1
 25 629 l 1
 25 749 l 1
 435 749 l 1
EndSplineSet
Validated: 1
EndChar

StartChar: five
Encoding: 53 53 60
GlifName: five
Width: 449
VWidth: 0
Flags: HMW
LayerCount: 2
Fore
SplineSet
65 488 m 1
 95 749 l 1
 395 749 l 1
 385 634 l 1
 202 634 l 1
 196 583 l 1
 311 582 414 527 414 401 c 0
 414 274 299 234 212 234 c 0
 135 234 65 269 25 306 c 1
 45 431 l 1
 85 393 134 359 192 359 c 0
 240 359 269 378 269 429 c 0
 269 487 190 488 142 488 c 2
 65 488 l 1
EndSplineSet
Validated: 1
EndChar

StartChar: six
Encoding: 54 54 61
GlifName: six
Width: 474
VWidth: 0
Flags: HMW
LayerCount: 2
Fore
SplineSet
175 411 m 0
 175 383 194 354 242 354 c 0
 290 354 309 383 309 411 c 0
 309 439 290 468 242 468 c 0
 194 468 175 439 175 411 c 0
439 411 m 0
 439 304 364 239 247 239 c 0
 90 239 35 364 35 481 c 0
 35 608 111 759 248 759 c 0
 325 759 395 724 435 677 c 1
 394 571 l 1
 354 609 317 639 269 639 c 0
 201 639 172 580 166 512 c 1
 196 549 242 563 277 563 c 0
 344 563 439 518 439 411 c 0
EndSplineSet
Validated: 1
EndChar

StartChar: eight
Encoding: 56 56 62
GlifName: eight
Width: 464
VWidth: 0
Flags: HMW
LayerCount: 2
Fore
SplineSet
160 401 m 0
 160 373 184 354 232 354 c 0
 280 354 304 373 304 401 c 0
 304 429 280 449 232 449 c 0
 184 449 160 429 160 401 c 0
180 603 m 0
 180 575 204 564 232 564 c 0
 260 564 284 575 284 603 c 0
 284 631 260 644 232 644 c 0
 204 644 180 631 180 603 c 0
50 613 m 0
 50 690 115 759 232 759 c 0
 349 759 414 690 414 613 c 0
 414 566 389 530 343 509 c 1
 399 490 434 453 434 391 c 0
 434 284 349 239 232 239 c 0
 115 239 30 294 30 391 c 0
 30 454 66 492 124 510 c 1
 76 533 50 571 50 613 c 0
EndSplineSet
Validated: 1
EndChar

StartChar: nine
Encoding: 57 57 63
GlifName: nine
Width: 474
VWidth: 0
Flags: HMW
LayerCount: 2
Fore
SplineSet
299 587 m 0
 299 615 280 644 232 644 c 0
 184 644 165 615 165 587 c 0
 165 559 184 530 232 530 c 0
 280 530 299 559 299 587 c 0
35 587 m 0
 35 694 110 759 227 759 c 0
 384 759 439 634 439 517 c 0
 439 390 363 239 226 239 c 0
 149 239 79 274 39 321 c 1
 80 427 l 1
 120 389 157 359 205 359 c 0
 273 359 302 418 308 486 c 1
 278 449 232 435 197 435 c 0
 130 435 35 480 35 587 c 0
EndSplineSet
Validated: 1
EndChar

StartChar: comma
Encoding: 44 44 64
GlifName: comma
Width: 220
VWidth: 0
Flags: HMW
LayerCount: 2
Fore
SplineSet
45 129 m 1
 45 389 l 1
 175 389 l 1
 175 249 l 1
 45 129 l 1
EndSplineSet
Validated: 1
EndChar

StartChar: colon
Encoding: 58 58 65
GlifName: colon
Width: 291
VWidth: 0
Flags: HMW
LayerCount: 2
Fore
SplineSet
145 506 m 1
 40 611 l 1
 145 717 l 1
 251 611 l 1
 145 506 l 1
145 221 m 1
 40 326 l 1
 145 432 l 1
 251 326 l 1
 145 221 l 1
EndSplineSet
Validated: 1
EndChar

StartChar: semicolon
Encoding: 59 59 66
GlifName: semicolon
Width: 291
VWidth: 0
Flags: HMW
LayerCount: 2
Fore
SplineSet
85 129 m 1
 85 389 l 1
 215 389 l 1
 215 249 l 1
 85 129 l 1
145 506 m 1
 40 611 l 1
 145 717 l 1
 251 611 l 1
 145 506 l 1
EndSplineSet
Validated: 1
EndChar

StartChar: exclam
Encoding: 33 33 67
GlifName: exclam
Width: 291
VWidth: 0
Flags: HMW
LayerCount: 2
Fore
SplineSet
95 469 m 1
 65 749 l 1
 225 749 l 1
 195 469 l 1
 95 469 l 1
145 221 m 1
 40 326 l 1
 145 432 l 1
 251 326 l 1
 145 221 l 1
EndSplineSet
Validated: 1
EndChar

StartChar: quotedbl
Encoding: 34 34 68
GlifName: quotedbl
Width: 390
VWidth: 0
Flags: HMW
LayerCount: 2
Fore
SplineSet
75 539 m 1
 45 749 l 1
 175 749 l 1
 145 539 l 1
 75 539 l 1
245 539 m 1
 215 749 l 1
 345 749 l 1
 315 539 l 1
 245 539 l 1
EndSplineSet
Validated: 1
EndChar

StartChar: quotedblright
Encoding: 186 8221 69
GlifName: quotedblright
Width: 430
VWidth: 0
Flags: HMW
LayerCount: 2
Fore
SplineSet
255 489 m 1
 255 749 l 1
 385 749 l 1
 385 609 l 1
 255 489 l 1
45 489 m 1
 45 749 l 1
 175 749 l 1
 175 609 l 1
 45 489 l 1
EndSplineSet
Validated: 1
EndChar

StartChar: quotedblleft
Encoding: 170 8220 70
GlifName: quotedblleft
Width: 430
VWidth: 0
Flags: HMW
LayerCount: 2
Fore
SplineSet
385 789 m 1
 385 529 l 1
 255 529 l 1
 255 669 l 1
 385 789 l 1
175 789 m 1
 175 529 l 1
 45 529 l 1
 45 669 l 1
 175 789 l 1
EndSplineSet
Validated: 1
EndChar

StartChar: numbersign
Encoding: 35 35 71
GlifName: numbersign
Width: 600
VWidth: 0
Flags: HMW
LayerCount: 2
Fore
SplineSet
20 364 m 1
 20 459 l 1
 143 459 l 1
 157 539 l 1
 70 539 l 1
 70 634 l 1
 174 634 l 1
 195 749 l 1
 300 749 l 1
 279 634 l 1
 359 634 l 1
 380 749 l 1
 485 749 l 1
 464 634 l 1
 570 634 l 1
 570 539 l 1
 447 539 l 1
 433 459 l 1
 520 459 l 1
 520 364 l 1
 416 364 l 1
 395 249 l 1
 290 249 l 1
 311 364 l 1
 231 364 l 1
 210 249 l 1
 105 249 l 1
 126 364 l 1
 20 364 l 1
328 459 m 1
 342 539 l 1
 262 539 l 1
 248 459 l 1
 328 459 l 1
EndSplineSet
Validated: 1
EndChar

StartChar: dollar
Encoding: 36 36 72
GlifName: dollar
Width: 449
VWidth: 0
Flags: HMW
LayerCount: 2
Fore
SplineSet
279 399 m 0
 279 459 46 462 46 612 c 0
 46 691 102 742 180 758 c 1
 165 819 l 1
 305 819 l 1
 290 758 l 1
 336 746 378 719 415 677 c 1
 375 567 l 1
 335 605 287 644 239 644 c 0
 211 644 201 630 201 612 c 0
 201 552 424 545 424 401 c 0
 424 296 359 251 276 238 c 1
 292 174 l 1
 152 174 l 1
 168 238 l 1
 99 248 47 278 15 316 c 1
 55 431 l 1
 95 393 164 359 212 359 c 0
 250 359 279 368 279 399 c 0
EndSplineSet
Validated: 1
EndChar

StartChar: quoteright
Encoding: 39 8217 73
GlifName: quoteright
Width: 220
VWidth: 0
Flags: HMW
LayerCount: 2
Fore
SplineSet
45 489 m 1
 45 749 l 1
 175 749 l 1
 175 609 l 1
 45 489 l 1
EndSplineSet
Validated: 1
EndChar

StartChar: ampersand
Encoding: 38 38 74
GlifName: ampersand
Width: 487
VWidth: 0
Flags: HMW
LayerCount: 2
Fore
SplineSet
290 458 m 1
 257 458 l 2
 209 458 175 447 175 409 c 0
 175 378 202 359 235 359 c 0
 258 359 290 372 290 403 c 2
 290 458 l 1
200 606 m 0
 200 578 209 553 257 553 c 2
 457 553 l 1
 457 458 l 1
 405 458 l 1
 409 442 410 420 410 376 c 0
 410 281 316 234 227 234 c 0
 140 234 35 284 35 401 c 0
 35 457 66 496 120 516 c 1
 75 534 49 567 49 622 c 0
 49 719 134 764 221 764 c 0
 308 764 368 714 388 687 c 1
 348 597 l 1
 308 635 270 644 242 644 c 0
 214 644 200 629 200 606 c 0
EndSplineSet
Validated: 1
EndChar

StartChar: percent
Encoding: 37 37 75
GlifName: percent
Width: 641
VWidth: 0
Flags: HMW
LayerCount: 2
Fore
SplineSet
100 249 m 1
 410 749 l 1
 540 749 l 1
 230 249 l 1
 100 249 l 1
150 557 m 1
 45 662 l 1
 150 768 l 1
 256 662 l 1
 150 557 l 1
490 221 m 1
 385 326 l 1
 490 432 l 1
 596 326 l 1
 490 221 l 1
EndSplineSet
Validated: 1
EndChar

StartChar: parenleft
Encoding: 40 40 76
GlifName: parenleft
Width: 232
VWidth: 0
Flags: HMW
LayerCount: 2
Fore
SplineSet
142 209 m 1
 67 294 30 399 30 504 c 0
 30 609 67 714 142 799 c 1
 232 799 l 1
 182 724 158 614 158 504 c 0
 158 394 182 284 232 209 c 1
 142 209 l 1
EndSplineSet
Validated: 1
EndChar

StartChar: parenright
Encoding: 41 41 77
GlifName: parenright
Width: 232
VWidth: 0
Flags: HMW
LayerCount: 2
Fore
SplineSet
90 800 m 1
 165 715 202 610 202 505 c 0
 202 400 165 295 90 210 c 1
 -0 210 l 1
 50 285 74 395 74 505 c 0
 74 615 50 725 -0 800 c 1
 90 800 l 1
EndSplineSet
Validated: 1
EndChar

StartChar: asterisk
Encoding: 42 42 78
GlifName: asterisk
Width: 459
VWidth: 0
Flags: HMW
LayerCount: 2
Fore
SplineSet
192 566 m 1
 165 709 l 1
 295 709 l 1
 267 566 l 1
 379 660 l 1
 444 548 l 1
 305 499 l 1
 444 450 l 1
 379 338 l 1
 267 432 l 1
 295 289 l 1
 165 289 l 1
 192 432 l 1
 80 338 l 1
 15 450 l 1
 154 499 l 1
 15 548 l 1
 80 660 l 1
 192 566 l 1
EndSplineSet
Validated: 1
EndChar

StartChar: equal
Encoding: 61 61 79
GlifName: equal
Width: 560
VWidth: 0
Flags: HMW
LayerCount: 2
Fore
SplineSet
85 359 m 1
 85 469 l 1
 475 469 l 1
 475 359 l 1
 85 359 l 1
85 539 m 1
 85 649 l 1
 475 649 l 1
 475 539 l 1
 85 539 l 1
EndSplineSet
Validated: 1
EndChar

StartChar: plus
Encoding: 43 43 80
GlifName: plus
Width: 560
VWidth: 0
Flags: HMW
LayerCount: 2
Fore
SplineSet
85 439 m 1
 85 549 l 1
 210 549 l 1
 210 669 l 1
 350 669 l 1
 350 549 l 1
 475 549 l 1
 475 439 l 1
 350 439 l 1
 350 319 l 1
 210 319 l 1
 210 439 l 1
 85 439 l 1
EndSplineSet
Validated: 1
EndChar

StartChar: hyphen
Encoding: 45 45 81
GlifName: hyphen
Width: 560
VWidth: 0
Flags: HMW
LayerCount: 2
Fore
SplineSet
85 519 m 1
 85 629 l 1
 475 629 l 1
 475 519 l 1
 85 519 l 1
EndSplineSet
Validated: 1
EndChar

StartChar: at
Encoding: 64 64 82
GlifName: at
Width: 700
VWidth: 0
Flags: HMW
LayerCount: 2
Fore
SplineSet
680 469 m 0
 680 339 633 237 506 237 c 0
 459 237 414 248 399 294 c 1
 375 267 343 249 307 249 c 0
 200 249 155 344 155 431 c 0
 155 518 210 614 297 614 c 0
 334 614 367 597 394 571 c 1
 394 604 l 1
 529 604 l 1
 529 359 l 2
 529 331 531 322 546 322 c 0
 574 322 595 389 595 469 c 0
 595 642 477 699 355 699 c 0
 243 699 105 612 105 439 c 0
 105 236 233 184 385 184 c 1
 385 119 l 1
 160 119 20 220 20 439 c 0
 20 628 170 769 355 769 c 0
 550 769 680 638 680 469 c 0
394 378 m 1
 394 485 l 1
 377 503 353 509 337 509 c 0
 309 509 290 479 290 431 c 0
 290 383 309 354 337 354 c 0
 353 354 377 361 394 378 c 1
EndSplineSet
Validated: 1
EndChar

StartChar: slash
Encoding: 47 47 83
GlifName: slash
Width: 460
VWidth: 0
Flags: HMW
LayerCount: 2
Fore
SplineSet
10 249 m 1
 320 749 l 1
 450 749 l 1
 140 249 l 1
 10 249 l 1
EndSplineSet
Validated: 1
EndChar

StartChar: quotesingle
Encoding: 169 39 84
GlifName: quotesingle
Width: 220
VWidth: 0
Flags: HMW
LayerCount: 2
Fore
SplineSet
45 489 m 1
 45 749 l 1
 175 749 l 1
 175 609 l 1
 45 489 l 1
EndSplineSet
Validated: 1
EndChar

StartChar: question
Encoding: 63 63 85
GlifName: question
Width: 464
VWidth: 0
Flags: HMW
LayerCount: 2
Fore
SplineSet
167 453 m 1
 137 553 l 1
 207 553 l 2
 255 553 264 578 264 606 c 0
 264 629 250 644 222 644 c 0
 174 644 126 605 86 567 c 1
 46 677 l 1
 96 734 156 764 223 764 c 0
 330 764 415 719 415 622 c 0
 415 547 367 514 292 503 c 1
 277 453 l 1
 167 453 l 1
225 221 m 1
 120 326 l 1
 225 432 l 1
 331 326 l 1
 225 221 l 1
EndSplineSet
Validated: 1
EndChar

StartChar: backslash
Encoding: 92 92 86
GlifName: backslash
Width: 460
VWidth: 0
Flags: HMW
LayerCount: 2
Fore
SplineSet
450 249 m 1
 320 249 l 1
 10 749 l 1
 140 749 l 1
 450 249 l 1
EndSplineSet
Validated: 1
EndChar
